<svg xmlns="http://www.w3.org/2000/svg" viewBox="0 0 720 230" font-family="sans-serif" role="img" aria-label="楽しさ・速さ・安全・素直さといった価値観ごとに言語があることを示す見本市">
<defs><marker id="ar" markerWidth="10" markerHeight="10" refX="7" refY="3" orient="auto"><path d="M0,0 L7,3 L0,6 Z" fill="#3a6ea5"/></marker><marker id="arr" markerWidth="10" markerHeight="10" refX="7" refY="3" orient="auto"><path d="M0,0 L7,3 L0,6 Z" fill="#b23a48"/></marker><marker id="arg" markerWidth="10" markerHeight="10" refX="7" refY="3" orient="auto"><path d="M0,0 L7,3 L0,6 Z" fill="#52606d"/></marker></defs>
<rect x="55" y="75" width="120" height="95" rx="12" fill="#eef1f5" stroke="#b8c2cc" stroke-width="1.2"/>
<text x="115" y="116" text-anchor="middle" font-size="17" font-weight="bold" fill="#1f2933">楽しさ</text>
<circle cx="115" cy="146" r="11" fill="#dce9f2" stroke="#3a6ea5" stroke-width="1"/>
<rect x="225" y="75" width="120" height="95" rx="12" fill="#eef1f5" stroke="#b8c2cc" stroke-width="1.2"/>
<text x="285" y="116" text-anchor="middle" font-size="17" font-weight="bold" fill="#1f2933">速さ</text>
<circle cx="285" cy="146" r="11" fill="#dce9f2" stroke="#3a6ea5" stroke-width="1"/>
<rect x="395" y="75" width="120" height="95" rx="12" fill="#eef1f5" stroke="#b8c2cc" stroke-width="1.2"/>
<text x="455" y="116" text-anchor="middle" font-size="17" font-weight="bold" fill="#1f2933">安全</text>
<circle cx="455" cy="146" r="11" fill="#dce9f2" stroke="#3a6ea5" stroke-width="1"/>
<rect x="565" y="75" width="120" height="95" rx="12" fill="#eef1f5" stroke="#b8c2cc" stroke-width="1.2"/>
<text x="625" y="116" text-anchor="middle" font-size="17" font-weight="bold" fill="#1f2933">素直さ</text>
<circle cx="625" cy="146" r="11" fill="#dce9f2" stroke="#3a6ea5" stroke-width="1"/>
<text x="360.0" y="205" text-anchor="middle" font-size="14" font-weight="bold" fill="#52606d">大事にするものの数だけ、言語がある</text>
</svg>