<svg xmlns="http://www.w3.org/2000/svg" viewBox="0 0 720 210" font-family="sans-serif" role="img" aria-label="ひとりの宣言から世界中の貢献が集まり、実用のソフトに組み上がる拡散の流れ">
<defs><marker id="ar" markerWidth="10" markerHeight="10" refX="7" refY="3" orient="auto"><path d="M0,0 L7,3 L0,6 Z" fill="#3a6ea5"/></marker><marker id="arr" markerWidth="10" markerHeight="10" refX="7" refY="3" orient="auto"><path d="M0,0 L7,3 L0,6 Z" fill="#b23a48"/></marker><marker id="arg" markerWidth="10" markerHeight="10" refX="7" refY="3" orient="auto"><path d="M0,0 L7,3 L0,6 Z" fill="#52606d"/></marker></defs>
<rect x="30" y="85" width="120" height="60" rx="10" fill="#dce9f2" stroke="#3a6ea5" stroke-width="1.2"/>
<text x="90" y="121" text-anchor="middle" font-size="17" font-weight="bold" fill="#3a6ea5">宣言</text>
<text x="90" y="66" text-anchor="middle" font-size="12" font-weight="normal" fill="#52606d">ひとり</text>
<circle cx="300" cy="70" r="9" fill="#eef1f5" stroke="#b8c2cc" stroke-width="1"/>
<circle cx="355" cy="100" r="9" fill="#eef1f5" stroke="#b8c2cc" stroke-width="1"/>
<circle cx="295" cy="135" r="9" fill="#eef1f5" stroke="#b8c2cc" stroke-width="1"/>
<circle cx="365" cy="150" r="9" fill="#eef1f5" stroke="#b8c2cc" stroke-width="1"/>
<circle cx="325" cy="178" r="9" fill="#eef1f5" stroke="#b8c2cc" stroke-width="1"/>
<circle cx="285" cy="102" r="9" fill="#eef1f5" stroke="#b8c2cc" stroke-width="1"/>
<text x="325" y="52" text-anchor="middle" font-size="12" font-weight="normal" fill="#52606d">世界中の貢献</text>
<rect x="560" y="85" width="130" height="60" rx="10" fill="#dce9f2" stroke="#3a6ea5" stroke-width="1.2"/>
<text x="625" y="121" text-anchor="middle" font-size="17" font-weight="bold" fill="#3a6ea5">実用へ</text>
<text x="625" y="66" text-anchor="middle" font-size="12" font-weight="normal" fill="#52606d">組み上がる</text>
<line x1="155" y1="115" x2="265" y2="115" stroke="#3a6ea5" stroke-width="2" marker-end="url(#ar)"/>
<line x1="405" y1="115" x2="555" y2="115" stroke="#3a6ea5" stroke-width="2" marker-end="url(#ar)"/>
</svg>