<svg xmlns="http://www.w3.org/2000/svg" viewBox="0 0 720 430" font-family="sans-serif" role="img" aria-label="機能数が増えると、気を配る関係の数が直線を超えて急増することを示すグラフ">
<defs><marker id="ar" markerWidth="10" markerHeight="10" refX="7" refY="3" orient="auto"><path d="M0,0 L7,3 L0,6 Z" fill="#3a6ea5"/></marker><marker id="arr" markerWidth="10" markerHeight="10" refX="7" refY="3" orient="auto"><path d="M0,0 L7,3 L0,6 Z" fill="#b23a48"/></marker><marker id="arg" markerWidth="10" markerHeight="10" refX="7" refY="3" orient="auto"><path d="M0,0 L7,3 L0,6 Z" fill="#52606d"/></marker></defs>
<line x1="110" y1="350" x2="650" y2="350" stroke="#52606d" stroke-width="1.5"/>
<line x1="110" y1="350" x2="110" y2="80" stroke="#52606d" stroke-width="1.5"/>
<text x="650" y="376" text-anchor="end" font-size="14" font-weight="normal" fill="#52606d">機能の数 →</text>
<text x="102" y="72" text-anchor="start" font-size="14" font-weight="normal" fill="#52606d">気を配る関係の数</text>
<line x1="110.0" y1="347.1578947368421" x2="650.0" y2="321.57894736842104" stroke="#b8c2cc" stroke-width="2" stroke-dasharray="5 5"/>
<text x="380.0" y="324.36842105263156" text-anchor="middle" font-size="12" font-weight="normal" fill="#52606d">もし直線なら、20 どまり</text>
<polyline points="110.0,348.6 140.0,345.7 170.0,341.5 200.0,335.8 230.0,328.7 260.0,320.2 290.0,310.2 320.0,298.8 350.0,286.1 380.0,271.8 410.0,256.2 440.0,239.2 470.0,220.7 500.0,200.8 530.0,179.5 560.0,156.7 590.0,132.6 620.0,107.0 650.0,80.0" fill="none" stroke="#3a6ea5" stroke-width="3"/>
<circle cx="110.0" cy="348.57894736842104" r="4.5" fill="#3a6ea5" stroke="none" stroke-width="1"/>
<text x="110.0" y="372" text-anchor="middle" font-size="13" font-weight="normal" fill="#52606d">2</text>
<circle cx="350.0" cy="286.0526315789474" r="4.5" fill="#3a6ea5" stroke="none" stroke-width="1"/>
<text x="350.0" y="372" text-anchor="middle" font-size="13" font-weight="normal" fill="#52606d">10</text>
<circle cx="650.0" cy="80.0" r="4.5" fill="#3a6ea5" stroke="none" stroke-width="1"/>
<text x="650.0" y="372" text-anchor="middle" font-size="13" font-weight="normal" fill="#52606d">20</text>
<circle cx="650.0" cy="80.0" r="6" fill="#3a6ea5" stroke="none" stroke-width="1"/>
<text x="644.0" y="70.0" text-anchor="end" font-size="13" font-weight="bold" fill="#3a6ea5">20 の機能 → 190 の関係</text>
</svg>