<svg xmlns="http://www.w3.org/2000/svg" viewBox="0 0 640 430" font-family="sans-serif" role="img" aria-label="フリーソフトウェアの四つの自由（使う・読んで学ぶ・直す・配る）を中心の周りに示す図">
<defs><marker id="ar" markerWidth="10" markerHeight="10" refX="7" refY="3" orient="auto"><path d="M0,0 L7,3 L0,6 Z" fill="#3a6ea5"/></marker><marker id="arr" markerWidth="10" markerHeight="10" refX="7" refY="3" orient="auto"><path d="M0,0 L7,3 L0,6 Z" fill="#b23a48"/></marker><marker id="arg" markerWidth="10" markerHeight="10" refX="7" refY="3" orient="auto"><path d="M0,0 L7,3 L0,6 Z" fill="#52606d"/></marker></defs>
<line x1="320" y1="215" x2="200" y2="102" stroke="#3a6ea5" stroke-width="1.6"/>
<line x1="320" y1="215" x2="440" y2="102" stroke="#3a6ea5" stroke-width="1.6"/>
<line x1="320" y1="215" x2="200" y2="328" stroke="#3a6ea5" stroke-width="1.6"/>
<line x1="320" y1="215" x2="440" y2="328" stroke="#3a6ea5" stroke-width="1.6"/>
<rect x="225" y="181" width="190" height="68" rx="10" fill="#dce9f2" stroke="#3a6ea5" stroke-width="1.2"/>
<text x="320" y="209" text-anchor="middle" font-size="18" font-weight="bold" fill="#3a6ea5">自由な</text>
<text x="320" y="233" text-anchor="middle" font-size="18" font-weight="bold" fill="#3a6ea5">ソフトウェア</text>
<rect x="120" y="70" width="160" height="64" rx="10" fill="#eef1f5" stroke="#b8c2cc" stroke-width="1.2"/>
<text x="200" y="110" text-anchor="middle" font-size="19" font-weight="bold" fill="#1f2933">使う</text>
<rect x="360" y="70" width="160" height="64" rx="10" fill="#eef1f5" stroke="#b8c2cc" stroke-width="1.2"/>
<text x="440" y="110" text-anchor="middle" font-size="19" font-weight="bold" fill="#1f2933">読んで学ぶ</text>
<rect x="120" y="296" width="160" height="64" rx="10" fill="#eef1f5" stroke="#b8c2cc" stroke-width="1.2"/>
<text x="200" y="336" text-anchor="middle" font-size="19" font-weight="bold" fill="#1f2933">直す</text>
<rect x="360" y="296" width="160" height="64" rx="10" fill="#eef1f5" stroke="#b8c2cc" stroke-width="1.2"/>
<text x="440" y="336" text-anchor="middle" font-size="19" font-weight="bold" fill="#1f2933">配る</text>
</svg>